<svg width="15" height="18" viewBox="0 0 15 18" fill="none" xmlns="http://www.w3.org/2000/svg">
<path d="M14.9458 14.4999C14.8951 14.39 14.8133 14.2991 14.7115 14.2395C14.6096 14.1799 14.4928 14.1544 14.3767 14.1665H13.8929C12.4767 14.1262 11.1154 13.5846 10.0316 12.6304C8.9477 11.6762 8.20537 10.3657 7.92587 8.91313C7.64637 7.46055 7.84622 5.95178 8.49277 4.63338C9.13933 3.31497 10.1943 2.2649 11.4854 1.65475C11.5958 1.60632 11.6887 1.52272 11.7511 1.41586C11.8134 1.309 11.8419 1.18431 11.8326 1.05952C11.8287 0.93955 11.7902 0.823623 11.7221 0.726957C11.654 0.630291 11.5596 0.557402 11.4513 0.517859C10.5386 0.174 9.57564 -0.00122839 8.60552 6.48151e-06C6.3232 6.48151e-06 4.13435 0.948209 2.5205 2.63602C0.906651 4.32383 0 6.613 0 8.99992C0 11.3869 0.906651 13.676 2.5205 15.3638C4.13435 17.0516 6.3232 17.9998 8.60552 17.9998C9.78252 18.0072 10.9479 17.7562 12.0263 17.2631C13.1047 16.7699 14.0722 16.0455 14.8662 15.1368C14.9363 15.0497 14.9811 14.9434 14.9952 14.8305C15.0093 14.7176 14.9922 14.6029 14.9458 14.4999ZM8.6226 16.8391C6.64217 16.8391 4.74285 16.0164 3.34247 14.5518C1.94209 13.0872 1.15537 11.1009 1.15537 9.02969C1.15537 6.95849 1.94209 4.97213 3.34247 3.50757C4.74285 2.04301 6.64217 1.22023 8.6226 1.22023C9.00393 1.21815 9.38473 1.25001 9.76089 1.31547C8.54173 2.20879 7.60857 3.46594 7.08334 4.92266C6.55812 6.37937 6.46525 7.9679 6.81689 9.48069C7.16852 10.9935 7.94829 12.3601 9.05432 13.4021C10.1603 14.4441 11.5412 15.113 13.0164 15.3213C11.7494 16.3151 10.2063 16.8482 8.6226 16.8391Z" fill="#E1E1E1"/>
</svg>
