<svg width="15" height="15" viewBox="0 0 15 15" fill="none" xmlns="http://www.w3.org/2000/svg">
<path d="M7.4874 5.34814C7.9105 5.34814 8.3241 5.4736 8.6759 5.70867C9.0277 5.94373 9.3019 6.27784 9.46381 6.66874C9.62572 7.05964 9.66809 7.48977 9.58555 7.90474C9.503 8.31972 9.29926 8.7009 9.00008 9.00008C8.7009 9.29926 8.31972 9.503 7.90474 9.58555C7.48977 9.66809 7.05964 9.62572 6.66874 9.46381C6.27784 9.3019 5.94373 9.0277 5.70867 8.6759C5.4736 8.3241 5.34814 7.9105 5.34814 7.48739C5.34885 6.92025 5.57446 6.37653 5.97549 5.97549C6.37653 5.57446 6.92025 5.34885 7.4874 5.34814ZM7.4874 4.27851C6.85274 4.27851 6.23233 4.46671 5.70463 4.81931C5.17694 5.1719 4.76565 5.67306 4.52277 6.25941C4.2799 6.84576 4.21635 7.49096 4.34017 8.11342C4.46398 8.73588 4.7696 9.30765 5.21837 9.75642C5.66714 10.2052 6.23891 10.5108 6.86137 10.6346C7.48384 10.7584 8.12903 10.6949 8.71538 10.452C9.30173 10.2091 9.80289 9.79785 10.1555 9.27015C10.5081 8.74246 10.6963 8.12205 10.6963 7.48739C10.6963 6.63635 10.3582 5.82015 9.75642 5.21837C9.15464 4.61659 8.33844 4.27851 7.4874 4.27851ZM1.81516 2.57139L2.57245 1.81516L4.44698 3.69022L3.69022 4.44644L1.81516 2.57139ZM0 6.95258H2.67407V8.02221H0V6.95258ZM1.81516 12.4039L3.69022 10.5289L4.44644 11.2851L2.57192 13.1602L1.81516 12.4039ZM6.95258 12.3007H8.02221V14.9748H6.95258V12.3007ZM10.5289 11.2846L11.2851 10.5283L13.1602 12.4034L12.4039 13.1596L10.5289 11.2846ZM12.3007 6.95258H14.9748V8.02221H12.3007V6.95258ZM10.5289 3.68968L12.4039 1.81462L13.1602 2.57085L11.2851 4.44591L10.5289 3.68968ZM6.95258 0H8.02221V2.67407H6.95258V0Z" fill="#333333"/>
</svg>
