<svg width="18" height="17" viewBox="0 0 18 17" fill="none" xmlns="http://www.w3.org/2000/svg">
<g clip-path="url(#clip0_789_6250)">
<path d="M0.644901 12.9779C0.459411 13.2751 0.249331 13.6235 0.0835149 13.8993C0.0469792 13.9608 0.0237931 14.0292 0.0132539 14.0997C0.00324963 14.1705 0.00706509 14.2426 0.0244957 14.3119C0.0413583 14.3818 0.0722732 14.4467 0.11443 14.5048C0.156586 14.5629 0.209985 14.6126 0.271112 14.6513L3.99705 16.911C4.06099 16.9504 4.13336 16.9766 4.20854 16.9884C4.28302 17.0001 4.3603 16.9974 4.43408 16.9794C4.50785 16.9614 4.57741 16.9296 4.63854 16.8854C4.69966 16.8411 4.75096 16.7851 4.7896 16.7209C4.93996 16.4748 5.13037 16.1561 5.33483 15.8161C6.81171 13.4334 8.30827 13.7251 10.9817 14.9755L14.6774 16.6994C14.7466 16.7321 14.8218 16.7507 14.8984 16.7541C14.9751 16.7576 15.0517 16.7458 15.1236 16.7195C15.1953 16.6932 15.2613 16.6531 15.3168 16.6013C15.373 16.5494 15.4173 16.4872 15.4482 16.4181L17.2223 12.483C17.2525 12.4166 17.2694 12.3454 17.2715 12.2728C17.2743 12.2009 17.2623 12.1284 17.237 12.0606C17.2118 11.9929 17.1738 11.93 17.1246 11.8761C17.0754 11.8221 17.0164 11.7786 16.9497 11.7461C16.1705 11.3853 14.6198 10.6754 13.2301 10.0063C8.17478 7.60706 3.90923 7.76534 0.644901 12.9779Z" fill="url(#paint0_linear_789_6250)"/>
<path d="M17.3522 4.03263C17.5398 3.73541 17.7498 3.38772 17.9136 3.11192C17.9508 3.04902 17.9754 2.97921 17.9859 2.90663C17.9965 2.83474 17.9922 2.76078 17.974 2.69027C17.9553 2.61959 17.9229 2.55316 17.8784 2.49466C17.8341 2.43598 17.7785 2.38643 17.7147 2.34881L13.9944 0.0891921C13.9298 0.0497923 13.8581 0.0235257 13.7829 0.0117749C13.7077 2.40318e-05 13.6311 0.00348016 13.5574 0.0207608C13.4836 0.0387327 13.414 0.070529 13.3529 0.114767C13.2918 0.159006 13.2405 0.214995 13.2011 0.279279C13.0543 0.525355 12.8604 0.84401 12.6559 1.18409C11.1734 3.57781 9.69091 3.28611 7.01466 2.03568L3.32245 0.311075C3.25359 0.278588 3.17911 0.259234 3.10323 0.255086C3.02735 0.250248 2.95077 0.261307 2.8791 0.286191C2.80743 0.311075 2.74139 0.349784 2.68518 0.400244C2.62827 0.450703 2.5833 0.511531 2.55098 0.579271L0.776889 4.52548C0.715917 4.65933 0.710123 4.81123 0.760729 4.9492C0.786023 5.01763 0.824666 5.08053 0.873849 5.13445C0.923032 5.18836 0.982754 5.2326 1.0495 5.2644C1.83151 5.62591 3.38217 6.33511 4.76912 7.0049C9.81105 9.40346 14.09 9.24586 17.3522 4.03263V4.03263Z" fill="url(#paint1_linear_789_6250)"/>
</g>
<defs>
<linearGradient id="paint0_linear_789_6250" x1="17.1028" y1="18.0811" x2="5.93902" y2="11.5594" gradientUnits="userSpaceOnUse">
<stop stop-color="#0052CC"/>
<stop offset="0.92" stop-color="#2380FB"/>
<stop offset="1" stop-color="#2684FF"/>
</linearGradient>
<linearGradient id="paint1_linear_789_6250" x1="0.893733" y1="-1.07276" x2="12.0603" y2="5.44889" gradientUnits="userSpaceOnUse">
<stop stop-color="#0052CC"/>
<stop offset="0.92" stop-color="#2380FB"/>
<stop offset="1" stop-color="#2684FF"/>
</linearGradient>
<clipPath id="clip0_789_6250">
<rect width="18" height="17" fill="white"/>
</clipPath>
</defs>
</svg>
