<svg width="22" height="22" viewBox="0 0 22 22" fill="none" xmlns="http://www.w3.org/2000/svg">
<g opacity="0.5">
<path d="M15.5827 15.5832C15.9646 15.5832 16.2891 15.4494 16.5562 15.1817C16.8238 14.9146 16.9577 14.5901 16.9577 14.2082C16.9577 13.8263 16.8238 13.5018 16.5562 13.2347C16.2891 12.967 15.9646 12.8332 15.5827 12.8332C15.2007 12.8332 14.8762 12.967 14.6092 13.2347C14.3415 13.5018 14.2077 13.8263 14.2077 14.2082C14.2077 14.5901 14.3415 14.9146 14.6092 15.1817C14.8762 15.4494 15.2007 15.5832 15.5827 15.5832ZM15.5827 18.3332C16.0563 18.3332 16.4917 18.2223 16.8889 18.0005C17.2862 17.7792 17.607 17.4853 17.8514 17.1186C17.5153 16.92 17.1563 16.7672 16.7743 16.6603C16.3924 16.5533 15.9952 16.4999 15.5827 16.4999C15.1702 16.4999 14.773 16.5533 14.391 16.6603C14.0091 16.7672 13.65 16.92 13.3139 17.1186C13.5584 17.4853 13.8792 17.7792 14.2764 18.0005C14.6737 18.2223 15.1091 18.3332 15.5827 18.3332ZM15.5827 20.1665C14.3146 20.1665 13.2339 19.7198 12.3404 18.8264C11.4464 17.9323 10.9993 16.8513 10.9993 15.5832C10.9993 14.3151 11.4464 13.2341 12.3404 12.34C13.2339 11.4466 14.3146 10.9999 15.5827 10.9999C16.8507 10.9999 17.9318 11.4466 18.8258 12.34C19.7193 13.2341 20.166 14.3151 20.166 15.5832C20.166 16.8513 19.7193 17.9323 18.8258 18.8264C17.9318 19.7198 16.8507 20.1665 15.5827 20.1665ZM10.9993 20.0978H10.7812C10.7127 20.0978 10.6403 20.0825 10.5639 20.052C8.56254 19.4408 6.91254 18.2033 5.61393 16.3395C4.31532 14.4756 3.66602 12.4207 3.66602 10.1749V5.84362C3.66602 5.46168 3.77693 5.11793 3.99877 4.81237C4.21999 4.50681 4.50629 4.28529 4.85768 4.14779L10.3577 2.08529C10.5716 2.0089 10.7855 1.9707 10.9993 1.9707C11.2132 1.9707 11.4271 2.0089 11.641 2.08529L17.141 4.14779C17.4924 4.28529 17.779 4.50681 18.0008 4.81237C18.2221 5.11793 18.3327 5.46168 18.3327 5.84362V9.78529C18.0424 9.66306 17.7445 9.55215 17.4389 9.45254C17.1334 9.35354 16.8202 9.28112 16.4993 9.23529V5.86654L10.9993 3.80404L5.49935 5.86654V10.1749C5.49935 10.8929 5.59468 11.611 5.78535 12.329C5.97663 13.0471 6.24429 13.7309 6.58835 14.3805C6.93179 15.0295 7.34796 15.629 7.83685 16.179C8.32574 16.729 8.8681 17.1874 9.46393 17.554C9.63199 18.0429 9.84588 18.5013 10.1056 18.929C10.3653 19.3568 10.6709 19.7464 11.0223 20.0978H10.9993Z" fill="white"/>
</g>
</svg>
