<svg width="21" height="21" viewBox="0 0 21 21" fill="none" xmlns="http://www.w3.org/2000/svg">
<g clip-path="url(#clip0_878_2498)">
<path d="M12.1048 5.83366C13.3935 5.83366 14.4382 4.78899 14.4382 3.50033C14.4382 2.21166 13.3935 1.16699 12.1048 1.16699C10.8162 1.16699 9.77148 2.21166 9.77148 3.50033C9.77148 4.78899 10.8162 5.83366 12.1048 5.83366Z" fill="white"/>
<path d="M14.4906 15.3012C14.4261 15.2579 14.3537 15.2278 14.2774 15.2128C14.2012 15.1979 14.1228 15.1983 14.0467 15.214C13.9706 15.2298 13.8985 15.2606 13.8345 15.3046C13.7704 15.3486 13.7159 15.405 13.6739 15.4704C13.11 16.3055 12.4192 17.0475 11.6264 17.6696C11.4339 17.8154 10.7164 18.3696 10.4131 18.2529C10.2031 18.1887 10.3256 17.7746 10.3664 17.5996L10.6756 16.6837C10.8039 16.3104 13.0381 9.68372 13.2831 8.92539C13.6448 7.81705 13.4873 6.72622 11.8364 6.98872C11.3873 7.03539 6.83144 7.62455 6.74977 7.63039C6.67317 7.63537 6.59829 7.65539 6.52943 7.6893C6.46056 7.72322 6.39905 7.77036 6.3484 7.82805C6.29775 7.88574 6.25896 7.95284 6.23425 8.02552C6.20953 8.0982 6.19938 8.17503 6.20436 8.25164C6.20934 8.32824 6.22935 8.40312 6.26327 8.47198C6.29719 8.54085 6.34433 8.60237 6.40202 8.65301C6.45971 8.70366 6.52681 8.74245 6.59949 8.76716C6.67217 8.79188 6.749 8.80203 6.82561 8.79705C6.82561 8.79705 8.57561 8.56955 8.76811 8.55205C8.86671 8.54243 8.96599 8.56154 9.05397 8.60708C9.14195 8.65263 9.21487 8.72266 9.26394 8.80872C9.36964 9.13546 9.35516 9.48921 9.22311 9.80622C9.07144 10.3896 6.67394 17.1446 6.59811 17.5354C6.51677 17.8624 6.53935 18.2067 6.66271 18.5203C6.78607 18.834 7.00409 19.1014 7.28644 19.2854C7.8164 19.6386 8.44742 19.8087 9.08311 19.7696C9.70119 19.762 10.3125 19.6394 10.8856 19.4079C12.3381 18.8246 13.8548 17.2729 14.6539 16.0537C14.7228 15.9299 14.7441 15.7852 14.7141 15.6467C14.684 15.5082 14.6046 15.3854 14.4906 15.3012Z" fill="white"/>
</g>
<defs>
<clipPath id="clip0_878_2498">
<rect width="21" height="21" fill="white"/>
</clipPath>
</defs>
</svg>
