<svg width="22" height="22" viewBox="0 0 22 22" fill="none" xmlns="http://www.w3.org/2000/svg">
<g opacity="0.5">
<path d="M11 3.66634C8.97496 3.66634 7.33333 5.30796 7.33333 7.33301C7.33333 9.35805 8.97496 10.9997 11 10.9997C13.025 10.9997 14.6667 9.35805 14.6667 7.33301C14.6667 5.30796 13.025 3.66634 11 3.66634ZM5.5 7.33301C5.5 4.29544 7.96243 1.83301 11 1.83301C14.0376 1.83301 16.5 4.29544 16.5 7.33301C16.5 10.3706 14.0376 12.833 11 12.833C7.96243 12.833 5.5 10.3706 5.5 7.33301ZM7.33333 16.4997C5.81455 16.4997 4.58333 17.7309 4.58333 19.2497C4.58333 19.7559 4.17293 20.1663 3.66667 20.1663C3.16041 20.1663 2.75 19.7559 2.75 19.2497C2.75 16.7184 4.80203 14.6663 7.33333 14.6663H14.6667C17.198 14.6663 19.25 16.7184 19.25 19.2497C19.25 19.7559 18.8396 20.1663 18.3333 20.1663C17.8271 20.1663 17.4167 19.7559 17.4167 19.2497C17.4167 17.7309 16.1854 16.4997 14.6667 16.4997H7.33333Z" fill="white"/>
</g>
</svg>
