<svg width="22" height="22" viewBox="0 0 22 22" fill="none" xmlns="http://www.w3.org/2000/svg">
<path d="M11.0007 21.0837C5.90673 19.9516 1.83398 15.1455 1.83398 10.0837V4.58366L11.0007 0.916992L20.1673 4.58366V10.0837C20.1673 15.1473 16.0946 19.9516 11.0007 21.0837ZM3.66732 5.50033V10.0837C3.7197 12.2031 4.46515 14.247 5.78956 15.9025C7.11398 17.558 8.94439 18.734 11.0007 19.2503C13.0569 18.734 14.8873 17.558 16.2117 15.9025C17.5362 14.247 18.2816 12.2031 18.334 10.0837V5.50033L11.0007 2.75033L3.66732 5.50033Z" fill="white"/>
<path d="M11.0007 10.0833C12.2663 10.0833 13.2923 9.05732 13.2923 7.79167C13.2923 6.52601 12.2663 5.5 11.0007 5.5C9.735 5.5 8.70898 6.52601 8.70898 7.79167C8.70898 9.05732 9.735 10.0833 11.0007 10.0833Z" fill="white"/>
<path d="M6.41602 13.75C6.86783 14.5734 7.53031 15.2619 8.33564 15.7451C9.14098 16.2283 10.0602 16.4888 10.9993 16.5C11.9385 16.4888 12.8577 16.2283 13.6631 15.7451C14.4684 15.2619 15.1309 14.5734 15.5827 13.75C15.5598 12.012 12.5192 11 10.9993 11C9.47127 11 6.43893 12.012 6.41602 13.75Z" fill="white"/>
</svg>
