<svg width="53" height="55" viewBox="0 0 53 55" fill="none" xmlns="http://www.w3.org/2000/svg">
<circle cx="25" cy="30" r="25" fill="#7CA5B4"/>
<path d="M25 30C23.9 30 22.9583 29.6083 22.175 28.825C21.3917 28.0417 21 27.1 21 26C21 24.9 21.3917 23.9583 22.175 23.175C22.9583 22.3917 23.9 22 25 22C26.1 22 27.0417 22.3917 27.825 23.175C28.6083 23.9583 29 24.9 29 26C29 27.1 28.6083 28.0417 27.825 28.825C27.0417 29.6083 26.1 30 25 30ZM17 38V35.2C17 34.6333 17.146 34.1123 17.438 33.637C17.7293 33.1623 18.1167 32.8 18.6 32.55C19.6333 32.0333 20.6833 31.6457 21.75 31.387C22.8167 31.129 23.9 31 25 31C26.1 31 27.1833 31.129 28.25 31.387C29.3167 31.6457 30.3667 32.0333 31.4 32.55C31.8833 32.8 32.2707 33.1623 32.562 33.637C32.854 34.1123 33 34.6333 33 35.2V38H17Z" fill="white"/>
<circle cx="42" cy="11" r="11" fill="#EA9E8D"/>
<path d="M39.7402 10.2359H37.4902C37.3411 10.2359 37.198 10.1767 37.0925 10.0712C36.987 9.96569 36.9277 9.82261 36.9277 9.67343V7.42343C36.9277 7.34956 36.9423 7.27642 36.9706 7.20817C36.9988 7.13992 37.0403 7.07791 37.0925 7.02568C37.1447 6.97345 37.2067 6.93201 37.275 6.90375C37.3432 6.87548 37.4164 6.86093 37.4902 6.86093C37.5641 6.86093 37.6372 6.87548 37.7055 6.90375C37.7737 6.93201 37.8357 6.97345 37.888 7.02568C37.9402 7.07791 37.9816 7.13992 38.0099 7.20817C38.0382 7.27642 38.0527 7.34956 38.0527 7.42343V8.31405L38.6855 7.68593C39.5652 6.8083 40.757 6.31543 41.9996 6.31543C43.2422 6.31543 44.434 6.8083 45.3137 7.68593C45.3661 7.73819 45.4077 7.80028 45.4361 7.86866C45.4645 7.93703 45.4791 8.01033 45.4791 8.08437C45.4791 8.1584 45.4645 8.2317 45.4361 8.30008C45.4077 8.36845 45.3661 8.43055 45.3137 8.4828C45.2069 8.58646 45.064 8.64445 44.9152 8.64445C44.7665 8.64445 44.6235 8.58646 44.5168 8.4828C44.1864 8.152 43.794 7.88957 43.3621 7.71052C42.9301 7.53147 42.4672 7.43931 41.9996 7.43931C41.532 7.43931 41.0691 7.53147 40.6372 7.71052C40.2052 7.88957 39.8128 8.152 39.4824 8.4828L38.8496 9.11093H39.7402C39.8894 9.11093 40.0325 9.17019 40.138 9.27568C40.2435 9.38117 40.3027 9.52424 40.3027 9.67343C40.3027 9.82261 40.2435 9.96569 40.138 10.0712C40.0325 10.1767 39.8894 10.2359 39.7402 10.2359ZM46.509 11.7641H44.259C44.1098 11.7641 43.9667 11.8233 43.8612 11.9288C43.7557 12.0343 43.6965 12.1774 43.6965 12.3266C43.6965 12.4757 43.7557 12.6188 43.8612 12.7243C43.9667 12.8298 44.1098 12.8891 44.259 12.8891H45.1496L44.5168 13.5172C44.1864 13.848 43.794 14.1104 43.3621 14.2895C42.9301 14.4685 42.4672 14.5607 41.9996 14.5607C41.532 14.5607 41.0691 14.4685 40.6372 14.2895C40.2052 14.1104 39.8128 13.848 39.4824 13.5172C39.3757 13.4135 39.2328 13.3555 39.084 13.3555C38.9352 13.3555 38.7923 13.4135 38.6855 13.5172C38.6331 13.5694 38.5915 13.6315 38.5631 13.6999C38.5347 13.7683 38.5201 13.8416 38.5201 13.9156C38.5201 13.9896 38.5347 14.063 38.5631 14.1313C38.5915 14.1997 38.6331 14.2618 38.6855 14.3141C39.1205 14.7497 39.6371 15.0954 40.2057 15.3312C40.7744 15.567 41.384 15.6884 41.9996 15.6884C42.6152 15.6884 43.2248 15.567 43.7935 15.3312C44.3621 15.0954 44.8787 14.7497 45.3137 14.3141L45.9465 13.6859V14.5766C45.9465 14.7257 46.0057 14.8688 46.1112 14.9743C46.2167 15.0798 46.3598 15.1391 46.509 15.1391C46.6582 15.1391 46.8012 15.0798 46.9067 14.9743C47.0122 14.8688 47.0715 14.7257 47.0715 14.5766V12.3266C47.0715 12.1774 47.0122 12.0343 46.9067 11.9288C46.8012 11.8233 46.6582 11.7641 46.509 11.7641Z" fill="white"/>
</svg>
