<svg id="Layer_1" data-name="Layer 1" xmlns="http://www.w3.org/2000/svg" viewBox="0 0 53 55"><defs><style>.cls-1{fill:#ea9e8d;}.cls-2{fill:#fff;}.cls-3{fill:#7ca5b4;}</style></defs><circle class="cls-1" cx="25" cy="30" r="25"/><path class="cls-2" d="M25,30a4,4,0,1,1,2.83-1.17A3.88,3.88,0,0,1,25,30Zm-8,8V35.2a3,3,0,0,1,1.6-2.65,14.62,14.62,0,0,1,3.15-1.16,13.74,13.74,0,0,1,6.5,0,14.62,14.62,0,0,1,3.15,1.16A3,3,0,0,1,33,35.2V38Z"/><circle class="cls-3" cx="42" cy="11" r="11"/><path class="cls-2" d="M39.74,10.24H37.49a.56.56,0,0,1-.4-.17.58.58,0,0,1-.16-.4V7.42a.52.52,0,0,1,0-.21A.57.57,0,0,1,37.09,7a.5.5,0,0,1,.19-.13.71.71,0,0,1,.21,0,.85.85,0,0,1,.22,0,.55.55,0,0,1,.18.13.57.57,0,0,1,.12.18.52.52,0,0,1,0,.21v.89l.64-.62a4.68,4.68,0,0,1,6.62,0,.46.46,0,0,1,.13.18.6.6,0,0,1,0,.43.46.46,0,0,1-.13.18.53.53,0,0,1-.39.16.54.54,0,0,1-.4-.16,3.62,3.62,0,0,0-1.16-.77,3.56,3.56,0,0,0-2.72,0,3.62,3.62,0,0,0-1.16.77l-.63.63h.89a.56.56,0,0,1,.4.17.55.55,0,0,1,.16.39.58.58,0,0,1-.16.4A.56.56,0,0,1,39.74,10.24Zm6.77,1.52H44.26a.56.56,0,0,0-.4.17.58.58,0,0,0-.16.4.55.55,0,0,0,.16.39.56.56,0,0,0,.4.17h.89l-.63.63a3.62,3.62,0,0,1-1.16.77,3.56,3.56,0,0,1-2.72,0,3.62,3.62,0,0,1-1.16-.77.54.54,0,0,0-.4-.16.53.53,0,0,0-.39.16.46.46,0,0,0-.13.18.54.54,0,0,0,0,.22.52.52,0,0,0,0,.21.46.46,0,0,0,.13.18,4.47,4.47,0,0,0,1.52,1,4.63,4.63,0,0,0,3.58,0,4.47,4.47,0,0,0,1.52-1l.64-.62v.89a.55.55,0,0,0,.16.39.56.56,0,0,0,.8,0,.55.55,0,0,0,.16-.39V12.33a.58.58,0,0,0-.16-.4A.56.56,0,0,0,46.51,11.76Z"/></svg>